<svg fill="none" height="24" viewBox="0 0 24 24" width="24" xmlns="http://www.w3.org/2000/svg"><g fill="#292d32"><path d="m15 22.75h-6c-5.43 0-7.75-2.32-7.75-7.75v-6c0-5.43 2.32-7.75 7.75-7.75h6c5.43 0 7.75 2.32 7.75 7.75v6c0 5.43-2.32 7.75-7.75 7.75zm-6-20c-4.61 0-6.25 1.64-6.25 6.25v6c0 4.61 1.64 6.25 6.25 6.25h6c4.61 0 6.25-1.64 6.25-6.25v-6c0-4.61-1.64-6.25-6.25-6.25z"/><path d="m13.2599 16.2802c-.19 0-.38-.07-.53-.22l-3.52998-3.53c-.29-.29-.29-.77 0-1.06l3.52998-3.53004c.29-.29.77-.29 1.06 0s.29.77 0 1.06l-3 3.00004 3 3c.29.29.29.77 0 1.06-.14.15-.33.22-.53.22z"/></g></svg>